<svg width="512" height="512" viewBox="0 0 512 512" xmlns="http://www.w3.org/2000/svg">
  <defs>
    <linearGradient id="bg" x1="0" y1="0" x2="0" y2="1">
      <stop offset="0" stop-color="#15805F"/>
      <stop offset="1" stop-color="#0B4639"/>
    </linearGradient>
  </defs>
  <rect width="512" height="512" fill="url(#bg)"/>

  <!-- piso / base -->
  <rect x="120" y="392" width="272" height="18" rx="9" fill="#FBFAF6"/>

  <!-- torre alta -->
  <rect x="150" y="148" width="104" height="246" rx="14" fill="#FBFAF6"/>
  <!-- torre baja -->
  <rect x="266" y="224" width="102" height="170" rx="14" fill="#FBFAF6"/>

  <!-- ventanas torre alta -->
  <g fill="#0E5A47">
    <rect x="172" y="176" width="24" height="24" rx="4"/>
    <rect x="210" y="176" width="24" height="24" rx="4"/>
    <rect x="172" y="216" width="24" height="24" rx="4"/>
    <rect x="210" y="216" width="24" height="24" rx="4"/>
    <rect x="172" y="256" width="24" height="24" rx="4"/>
    <rect x="210" y="256" width="24" height="24" rx="4"/>
    <rect x="210" y="296" width="24" height="24" rx="4"/>
    <rect x="172" y="336" width="24" height="24" rx="4"/>
    <rect x="210" y="336" width="24" height="24" rx="4"/>
  </g>
  <!-- ventana encendida (acento cobre) -->
  <rect x="172" y="296" width="24" height="24" rx="4" fill="#D98A3D"/>

  <!-- ventanas torre baja -->
  <g fill="#0E5A47">
    <rect x="288" y="250" width="22" height="22" rx="4"/>
    <rect x="324" y="250" width="22" height="22" rx="4"/>
    <rect x="288" y="288" width="22" height="22" rx="4"/>
    <rect x="324" y="288" width="22" height="22" rx="4"/>
    <rect x="288" y="326" width="22" height="22" rx="4"/>
    <rect x="324" y="326" width="22" height="22" rx="4"/>
  </g>
</svg>
